<?xml version="1.0" standalone="no"?>
<svg viewBox="0 0 200 200" xmlns="http://www.w3.org/2000/svg">
  <path fill="#4988C4" d="M49.7,-75.7C63.8,-68.4,74.2,-53.5,79.3,-37.6C84.4,-21.7,84.3,-4.8,78.1,8.5C71.9,21.8,59.7,31.4,49.6,43.1C39.6,54.7,31.8,68.2,20.8,71.9C9.9,75.5,-4.3,69.2,-16.9,63.1C-29.6,56.9,-40.6,50.9,-52.8,42.6C-65,34.3,-78.2,23.7,-80.5,11.2C-82.9,-1.3,-74.4,-15.7,-66.8,-29.7C-59.2,-43.7,-52.4,-57.3,-41.4,-66.1C-30.4,-74.9,-15.2,-78.8,1.3,-80.8C17.8,-82.9,35.7,-83.1,49.7,-75.7Z" transform="translate(100 100)" />
</svg>
